<svg class="svg--icon svg-icon-cart" xmlns="http://www.w3.org/2000/svg" xmlns:xlink="http://www.w3.org/1999/xlink" x="0px" y="0px" viewBox="0 0 511.999 511.999" style="enable-background:new 0 0 511.999 511.999;" xml:space="preserve">
											<g>
												<g>
													<path d="M496.619,428.582l-51.45-221.82h-62.616v-80.21C382.552,56.772,325.781,0,255.999,0S129.446,56.772,129.446,126.552v80.21
																	 H66.83l-51.45,221.82c-4.715,20.332,0.026,41.364,13.011,57.705c12.985,16.341,32.401,25.712,53.272,25.712h348.672
																	 c20.871,0,40.289-9.372,53.273-25.712C496.593,469.946,501.335,448.914,496.619,428.582z M159.448,126.552
																	 c0-53.239,43.313-96.551,96.552-96.551c53.238,0,96.552,43.313,96.552,96.551v80.21H159.448V126.552z M460.119,467.623
																	 c-7.259,9.136-18.115,14.376-29.783,14.376H81.663c-11.669,0-22.524-5.239-29.783-14.376s-9.91-20.895-7.273-32.263
																	 l46.064-198.597h38.777v18.826h-10.546v30.001h51.095v-30.001h-10.547v-18.826h193.103v18.826h-10.547v30.001h51.096v-30.001
																	 h-10.547v-18.826h38.777l46.064,198.597C470.029,446.728,467.378,458.486,460.119,467.623z"></path>
												</g>
											</g>
										</svg>